<svg viewBox="0 0 124 40" fill="none" xmlns="http://www.w3.org/2000/svg">
<path d="M10.598 2.37017C10.0923 1.69488 9.44732 1.13618 8.70677 0.731934C7.96623 0.327686 7.14742 0.0873393 6.30583 0.0271876C5.46425 -0.032964 4.61957 0.088486 3.82904 0.383301C3.03851 0.678117 2.32061 1.13941 1.72401 1.73591C1.1274 2.33241 0.666027 3.05019 0.37116 3.84058C0.0762924 4.63097 -0.045179 5.4755 0.0149832 6.31693C0.0751454 7.15837 0.315534 7.97704 0.719853 8.71746C1.12417 9.45787 1.68297 10.1027 2.35838 10.6083C4.22966 7.10802 7.09705 4.24112 10.598 2.37017Z" fill="#9ACA3C"/>
<path d="M11.7772 5.89502C11.7774 4.62328 11.3634 3.38604 10.598 2.37036C7.09707 4.24131 4.22968 7.1082 2.3584 10.6085C3.23259 11.2643 4.27214 11.6638 5.36061 11.7623C6.44908 11.8608 7.54347 11.6543 8.52121 11.1661C9.49895 10.6778 10.3214 9.92698 10.8965 8.99776C11.4715 8.06853 11.7765 6.99758 11.7772 5.90486V5.89502Z" fill="#005E85"/>
<path d="M10.0908 16.646C10.9816 16.6467 11.8357 17.0009 12.4653 17.6309C13.095 18.2609 13.4487 19.1151 13.4487 20.0058C13.4477 19.1445 13.6166 18.2915 13.9456 17.4955C14.2747 16.6996 14.7575 15.9763 15.3663 15.3671C15.9752 14.7578 16.6983 14.2746 17.4941 13.945C18.29 13.6154 19.143 13.4459 20.0044 13.4463H33.2808C32.7861 13.4339 32.3002 13.3124 31.858 13.0902C31.4158 12.8681 31.0282 12.5509 30.723 12.1614C30.7087 12.1496 30.6955 12.1364 30.6836 12.1221C29.1113 9.9931 26.9392 8.38188 24.4454 7.49478C21.9517 6.60769 19.2498 6.48511 16.6859 7.14275C16.2625 7.25105 15.8465 7.38889 15.4403 7.52919C12.8873 8.46683 10.6834 10.1648 9.12596 12.3941C7.56849 14.6234 6.73239 17.2766 6.73047 19.9959C6.73308 19.1066 7.08826 18.2545 7.71816 17.6266C8.34807 16.9986 9.20129 16.646 10.0908 16.646Z" fill="#FDB913"/>
<path d="M25.6296 23.3631C24.8945 24.595 23.7753 25.5517 22.4438 26.0862C21.1124 26.6207 19.6423 26.7036 18.2592 26.3221C16.8761 25.9406 15.6565 25.1158 14.7875 23.9744C13.9185 22.8329 13.4482 21.4379 13.4487 20.0034C13.4495 19.4696 13.3233 18.9432 13.0806 18.4678C12.8379 17.9923 12.4856 17.5814 12.0528 17.2688C11.6199 16.9563 11.119 16.7511 10.5912 16.6702C10.0635 16.5893 9.5241 16.6351 9.01751 16.8036C8.34556 17.0243 7.7616 17.4536 7.35069 18.0291C6.93977 18.6047 6.72336 19.2963 6.73297 20.0034C6.73255 23.1818 7.87298 26.2547 9.94689 28.6635C12.0208 31.0723 14.8905 32.657 18.0341 33.1294C21.1777 33.6018 24.3864 32.9305 27.0769 31.2376C29.7674 29.5447 31.7609 26.9427 32.6949 23.9046C32.7147 23.8421 32.7194 23.7758 32.7087 23.7112C32.698 23.6465 32.6722 23.5853 32.6333 23.5325C32.5944 23.4797 32.5436 23.4368 32.485 23.4074C32.4264 23.378 32.3617 23.3628 32.2961 23.3631H25.6296Z" fill="#5D62A8"/>
<path d="M39.9991 20.0206C40 19.5785 39.9139 19.1404 39.7456 18.7315C39.5772 18.3226 39.33 17.9509 39.0179 17.6375C38.7059 17.3242 38.3352 17.0754 37.927 16.9052C37.5187 16.7351 37.081 16.6471 36.6387 16.6461H20.098C19.2235 16.6386 18.3793 16.9659 17.7384 17.5608C17.0976 18.1558 16.7087 18.9734 16.6515 19.8459C16.6295 20.3004 16.7001 20.7546 16.8589 21.181C17.0178 21.6074 17.2616 21.9971 17.5756 22.3264C17.8896 22.6558 18.2672 22.9179 18.6856 23.097C19.1039 23.276 19.5543 23.3683 20.0094 23.3681H32.2962C32.3621 23.3682 32.4272 23.3837 32.486 23.4136C32.5449 23.4434 32.5959 23.4867 32.6349 23.5399C32.674 23.593 32.7 23.6546 32.7109 23.7197C32.7217 23.7848 32.7171 23.8515 32.6974 23.9145C31.8184 26.7679 30.0028 29.2416 27.544 30.9359C25.0851 32.6301 22.1267 33.4459 19.1469 33.2514C16.167 33.057 13.3398 31.8635 11.1221 29.8641C8.90445 27.8646 7.42588 25.1758 6.92539 22.2324C6.42489 19.2889 6.93169 16.2628 8.3639 13.6429C9.79611 11.023 12.07 8.96248 14.8182 7.79435C17.5664 6.62622 20.6282 6.41871 23.5089 7.20536C26.3896 7.99201 28.9208 9.72686 30.6935 12.1295C31.1153 12.6861 31.7001 13.0973 32.3666 13.306C33.033 13.5147 33.748 13.5104 34.4119 13.2937C35.0758 13.077 35.6556 12.6588 36.0707 12.0972C36.4857 11.5356 36.7152 10.8586 36.7274 10.1605C36.7544 8.9987 36.1439 8.152 35.4448 7.30283C32.2268 3.37408 27.6307 0.821122 22.5943 0.164913C21.7371 0.0546077 20.8737 -0.000475673 20.0094 3.0941e-06C16.7246 0.000726533 13.4912 0.815079 10.598 2.37028C11.4515 3.50303 11.8669 4.90589 11.7678 6.3206C11.6688 7.73531 11.0619 9.06662 10.0589 10.0694C9.05593 11.0722 7.72439 11.679 6.30943 11.778C4.89448 11.8771 3.49136 11.4617 2.35842 10.6084C0.930188 13.2885 0.131401 16.2586 0.0226984 19.2934C-0.0860041 22.3282 0.498236 25.3479 1.73106 28.1233C2.96389 30.8986 4.8129 33.3567 7.13775 35.3108C9.4626 37.265 12.2022 38.664 15.1485 39.4015C18.0949 40.139 21.1705 40.1957 24.1421 39.5673C27.1136 38.9389 29.9029 37.6419 32.2982 35.7747C34.6936 33.9076 36.632 31.5193 37.9663 28.7913C39.3006 26.0633 39.9958 23.0672 39.9991 20.0305V20.0206Z" fill="#F16682"/>
</svg>
